<mxfile host="app.diagrams.net" modified="2023-08-05T06:48:53.962Z" agent="Mozilla/5.0 (Windows NT 10.0; Win64; x64) AppleWebKit/537.36 (KHTML, like Gecko) Chrome/114.0.0.0 Safari/537.36" version="21.6.2" etag="KgFIyg_b2xpzzkVlsh-p" type="github">
  <diagram name="페이지-1" id="TVK5_kQwljClm4mWDiQm">
    <mxGraphModel>
      <root>
        <mxCell id="0" />
        <mxCell id="1" parent="0" />
      </root>
    </mxGraphModel>
  </diagram>
</mxfile>
